solid obstacle
  facet normal 0.0 0.0 -1.0
      outer loop
          vertex 4.1000000000000005 2.0 0.01
          vertex 4.3 3.7 0.01
          vertex 4.3 1.8 0.01
      endloop
  endfacet
  facet normal -0.0 0.0 1.0
      outer loop
          vertex 4.1000000000000005 2.0 1
          vertex 4.3 1.8 1
          vertex 4.3 3.7 1
      endloop
  endfacet
  facet normal -0.7071067811865488 -0.7071067811865464 0.0
      outer loop
          vertex 4.1000000000000005 2.0 0.01
          vertex 4.3 1.8 0.01
          vertex 4.3 1.8 1
      endloop
  endfacet
  facet normal -0.7071067811865488 -0.7071067811865464 0.0
      outer loop
          vertex 4.1000000000000005 2.0 0.01
          vertex 4.3 1.8 1
          vertex 4.1000000000000005 2.0 1
      endloop
  endfacet
  facet normal 1.0 0.0 0.0
      outer loop
          vertex 4.3 1.8 0.01
          vertex 4.3 3.7 0.01
          vertex 4.3 3.7 1
      endloop
  endfacet
  facet normal 1.0 0.0 0.0
      outer loop
          vertex 4.3 1.8 0.01
          vertex 4.3 3.7 1
          vertex 4.3 1.8 1
      endloop
  endfacet
  facet normal -0.9931506043228762 0.11684124756739678 0.0
      outer loop
          vertex 4.3 3.7 0.01
          vertex 4.1000000000000005 2.0 0.01
          vertex 4.1000000000000005 2.0 1
      endloop
  endfacet
  facet normal -0.9931506043228762 0.11684124756739678 0.0
      outer loop
          vertex 4.3 3.7 0.01
          vertex 4.1000000000000005 2.0 1
          vertex 4.3 3.7 1
      endloop
  endfacet
endsolid obstacle
