solid obstacle
  facet normal 0.0 0.0 -1.0
      outer loop
          vertex 2.6 3.1 0.01
          vertex 2.9000000000000004 2.9000000000000004 0.01
          vertex 2.9000000000000004 2.7 0.01
      endloop
  endfacet
  facet normal 0.0 0.0 1.0
      outer loop
          vertex 2.6 3.1 1
          vertex 2.9000000000000004 2.7 1
          vertex 2.9000000000000004 2.9000000000000004 1
      endloop
  endfacet
  facet normal -0.7999999999999996 -0.6000000000000004 0.0
      outer loop
          vertex 2.6 3.1 0.01
          vertex 2.9000000000000004 2.7 0.01
          vertex 2.9000000000000004 2.7 1
      endloop
  endfacet
  facet normal -0.7999999999999996 -0.6000000000000004 0.0
      outer loop
          vertex 2.6 3.1 0.01
          vertex 2.9000000000000004 2.7 1
          vertex 2.6 3.1 1
      endloop
  endfacet
  facet normal 1.0 0.0 0.0
      outer loop
          vertex 2.9000000000000004 2.7 0.01
          vertex 2.9000000000000004 2.9000000000000004 0.01
          vertex 2.9000000000000004 2.9000000000000004 1
      endloop
  endfacet
  facet normal 1.0 0.0 0.0
      outer loop
          vertex 2.9000000000000004 2.7 0.01
          vertex 2.9000000000000004 2.9000000000000004 1
          vertex 2.9000000000000004 2.7 1
      endloop
  endfacet
  facet normal 0.5547001962252283 0.8320502943378442 0.0
      outer loop
          vertex 2.9000000000000004 2.9000000000000004 0.01
          vertex 2.6 3.1 0.01
          vertex 2.6 3.1 1
      endloop
  endfacet
  facet normal 0.5547001962252283 0.8320502943378442 -0.0
      outer loop
          vertex 2.9000000000000004 2.9000000000000004 0.01
          vertex 2.6 3.1 1
          vertex 2.9000000000000004 2.9000000000000004 1
      endloop
  endfacet
endsolid obstacle
