solid obstacle
  facet normal 0.0 0.0 -1.0
      outer loop
          vertex 0.9 0.9 0.01
          vertex 0.9 2.0 0.01
          vertex 2.1 2.2 0.01
      endloop
  endfacet
  facet normal 0.0 0.0 1.0
      outer loop
          vertex 0.9 0.9 1
          vertex 2.1 2.2 1
          vertex 0.9 2.0 1
      endloop
  endfacet
  facet normal 0.7348034446274879 -0.6782801027330658 0.0
      outer loop
          vertex 0.9 0.9 0.01
          vertex 2.1 2.2 0.01
          vertex 2.1 2.2 1
      endloop
  endfacet
  facet normal 0.7348034446274879 -0.6782801027330658 0.0
      outer loop
          vertex 0.9 0.9 0.01
          vertex 2.1 2.2 1
          vertex 0.9 0.9 1
      endloop
  endfacet
  facet normal -0.1643989873053574 0.9863939238321436 0.0
      outer loop
          vertex 2.1 2.2 0.01
          vertex 0.9 2.0 0.01
          vertex 0.9 2.0 1
      endloop
  endfacet
  facet normal -0.1643989873053574 0.9863939238321436 0.0
      outer loop
          vertex 2.1 2.2 0.01
          vertex 0.9 2.0 1
          vertex 2.1 2.2 1
      endloop
  endfacet
  facet normal -1.0 0.0 0.0
      outer loop
          vertex 0.9 2.0 0.01
          vertex 0.9 0.9 0.01
          vertex 0.9 0.9 1
      endloop
  endfacet
  facet normal -1.0 0.0 0.0
      outer loop
          vertex 0.9 2.0 0.01
          vertex 0.9 0.9 1
          vertex 0.9 2.0 1
      endloop
  endfacet
endsolid obstacle
