solid obstacle
  facet normal 0.0 0.0 -1.0
      outer loop
          vertex 2.7 3.7 0.01
          vertex 3.7 4.4 0.01
          vertex 4.2 4.1000000000000005 0.01
      endloop
  endfacet
  facet normal 0.0 0.0 1.0
      outer loop
          vertex 2.7 3.7 1
          vertex 4.2 4.1000000000000005 1
          vertex 3.7 4.4 1
      endloop
  endfacet
  facet normal 0.2576626505603326 -0.9662349396012463 0.0
      outer loop
          vertex 2.7 3.7 0.01
          vertex 4.2 4.1000000000000005 0.01
          vertex 4.2 4.1000000000000005 1
      endloop
  endfacet
  facet normal 0.2576626505603326 -0.9662349396012463 0.0
      outer loop
          vertex 2.7 3.7 0.01
          vertex 4.2 4.1000000000000005 1
          vertex 2.7 3.7 1
      endloop
  endfacet
  facet normal 0.5144957554275262 0.8574929257125442 0.0
      outer loop
          vertex 4.2 4.1000000000000005 0.01
          vertex 3.7 4.4 0.01
          vertex 3.7 4.4 1
      endloop
  endfacet
  facet normal 0.5144957554275262 0.8574929257125442 -0.0
      outer loop
          vertex 4.2 4.1000000000000005 0.01
          vertex 3.7 4.4 1
          vertex 4.2 4.1000000000000005 1
      endloop
  endfacet
  facet normal -0.5734623443633284 0.8192319205190404 0.0
      outer loop
          vertex 3.7 4.4 0.01
          vertex 2.7 3.7 0.01
          vertex 2.7 3.7 1
      endloop
  endfacet
  facet normal -0.5734623443633284 0.8192319205190404 0.0
      outer loop
          vertex 3.7 4.4 0.01
          vertex 2.7 3.7 1
          vertex 3.7 4.4 1
      endloop
  endfacet
endsolid obstacle
