solid obstacle
  facet normal 0.0 0.0 -1.0
      outer loop
          vertex 2.8000000000000003 0.30000000000000004 0.01
          vertex 2.2 0.8 0.01
          vertex 1.8 1.4000000000000001 0.01
      endloop
  endfacet
  facet normal 0.0 0.0 1.0
      outer loop
          vertex 2.8000000000000003 0.30000000000000004 1
          vertex 1.8 1.4000000000000001 1
          vertex 2.2 0.8 1
      endloop
  endfacet
  facet normal 0.7399400733959436 0.6726727939963125 0.0
      outer loop
          vertex 2.8000000000000003 0.30000000000000004 0.01
          vertex 1.8 1.4000000000000001 0.01
          vertex 1.8 1.4000000000000001 1
      endloop
  endfacet
  facet normal 0.7399400733959436 0.6726727939963125 -0.0
      outer loop
          vertex 2.8000000000000003 0.30000000000000004 0.01
          vertex 1.8 1.4000000000000001 1
          vertex 2.8000000000000003 0.30000000000000004 1
      endloop
  endfacet
  facet normal -0.8320502943378436 -0.5547001962252291 0.0
      outer loop
          vertex 1.8 1.4000000000000001 0.01
          vertex 2.2 0.8 0.01
          vertex 2.2 0.8 1
      endloop
  endfacet
  facet normal -0.8320502943378436 -0.5547001962252291 0.0
      outer loop
          vertex 1.8 1.4000000000000001 0.01
          vertex 2.2 0.8 1
          vertex 1.8 1.4000000000000001 1
      endloop
  endfacet
  facet normal -0.6401843996644798 -0.768221279597376 0.0
      outer loop
          vertex 2.2 0.8 0.01
          vertex 2.8000000000000003 0.30000000000000004 0.01
          vertex 2.8000000000000003 0.30000000000000004 1
      endloop
  endfacet
  facet normal -0.6401843996644798 -0.768221279597376 0.0
      outer loop
          vertex 2.2 0.8 0.01
          vertex 2.8000000000000003 0.30000000000000004 1
          vertex 2.2 0.8 1
      endloop
  endfacet
endsolid obstacle
