solid obstacle
  facet normal 0.0 0.0 -1.0
      outer loop
          vertex 2.3000000000000003 2.2 0.01
          vertex 2.9000000000000004 1.3 0.01
          vertex 3.1 0.9 0.01
      endloop
  endfacet
  facet normal 0.0 0.0 1.0
      outer loop
          vertex 2.3000000000000003 2.2 1
          vertex 3.1 0.9 1
          vertex 2.9000000000000004 1.3 1
      endloop
  endfacet
  facet normal -0.851658316704544 -0.5240974256643346 0.0
      outer loop
          vertex 2.3000000000000003 2.2 0.01
          vertex 3.1 0.9 0.01
          vertex 3.1 0.9 1
      endloop
  endfacet
  facet normal -0.851658316704544 -0.5240974256643346 0.0
      outer loop
          vertex 2.3000000000000003 2.2 0.01
          vertex 3.1 0.9 1
          vertex 2.3000000000000003 2.2 1
      endloop
  endfacet
  facet normal 0.8944271909999162 0.44721359549995743 0.0
      outer loop
          vertex 3.1 0.9 0.01
          vertex 2.9000000000000004 1.3 0.01
          vertex 2.9000000000000004 1.3 1
      endloop
  endfacet
  facet normal 0.8944271909999162 0.44721359549995743 -0.0
      outer loop
          vertex 3.1 0.9 0.01
          vertex 2.9000000000000004 1.3 1
          vertex 3.1 0.9 1
      endloop
  endfacet
  facet normal 0.8320502943378436 0.5547001962252291 0.0
      outer loop
          vertex 2.9000000000000004 1.3 0.01
          vertex 2.3000000000000003 2.2 0.01
          vertex 2.3000000000000003 2.2 1
      endloop
  endfacet
  facet normal 0.8320502943378436 0.5547001962252291 -0.0
      outer loop
          vertex 2.9000000000000004 1.3 0.01
          vertex 2.3000000000000003 2.2 1
          vertex 2.9000000000000004 1.3 1
      endloop
  endfacet
endsolid obstacle
