solid obstacle
  facet normal 0.0 0.0 -1.0
      outer loop
          vertex 2.0 2.2 0.01
          vertex 1.6 2.2 0.01
          vertex 1.1 3.5 0.01
      endloop
  endfacet
  facet normal 0.0 0.0 1.0
      outer loop
          vertex 2.0 2.2 1
          vertex 1.1 3.5 1
          vertex 1.6 2.2 1
      endloop
  endfacet
  facet normal 0.8221921916437787 0.5692099788303083 0.0
      outer loop
          vertex 2.0 2.2 0.01
          vertex 1.1 3.5 0.01
          vertex 1.1 3.5 1
      endloop
  endfacet
  facet normal 0.8221921916437787 0.5692099788303083 -0.0
      outer loop
          vertex 2.0 2.2 0.01
          vertex 1.1 3.5 1
          vertex 2.0 2.2 1
      endloop
  endfacet
  facet normal -0.9333456062030595 -0.3589790793088691 0.0
      outer loop
          vertex 1.1 3.5 0.01
          vertex 1.6 2.2 0.01
          vertex 1.6 2.2 1
      endloop
  endfacet
  facet normal -0.9333456062030595 -0.3589790793088691 0.0
      outer loop
          vertex 1.1 3.5 0.01
          vertex 1.6 2.2 1
          vertex 1.1 3.5 1
      endloop
  endfacet
  facet normal 0.0 -1.0 0.0
      outer loop
          vertex 1.6 2.2 0.01
          vertex 2.0 2.2 0.01
          vertex 2.0 2.2 1
      endloop
  endfacet
  facet normal 0.0 -1.0 0.0
      outer loop
          vertex 1.6 2.2 0.01
          vertex 2.0 2.2 1
          vertex 1.6 2.2 1
      endloop
  endfacet
endsolid obstacle
