solid obstacle
  facet normal 0.0 0.0 -1.0
      outer loop
          vertex 0.5 2.5 0.01
          vertex 0.5 4.5 0.01
          vertex 1.7000000000000002 3.8000000000000003 0.01
      endloop
  endfacet
  facet normal 0.0 0.0 1.0
      outer loop
          vertex 0.5 2.5 1
          vertex 1.7000000000000002 3.8000000000000003 1
          vertex 0.5 4.5 1
      endloop
  endfacet
  facet normal 0.7348034446274879 -0.6782801027330658 0.0
      outer loop
          vertex 0.5 2.5 0.01
          vertex 1.7000000000000002 3.8000000000000003 0.01
          vertex 1.7000000000000002 3.8000000000000003 1
      endloop
  endfacet
  facet normal 0.7348034446274879 -0.6782801027330658 0.0
      outer loop
          vertex 0.5 2.5 0.01
          vertex 1.7000000000000002 3.8000000000000003 1
          vertex 0.5 2.5 1
      endloop
  endfacet
  facet normal 0.503871025524086 0.8637789008984336 0.0
      outer loop
          vertex 1.7000000000000002 3.8000000000000003 0.01
          vertex 0.5 4.5 0.01
          vertex 0.5 4.5 1
      endloop
  endfacet
  facet normal 0.503871025524086 0.8637789008984336 -0.0
      outer loop
          vertex 1.7000000000000002 3.8000000000000003 0.01
          vertex 0.5 4.5 1
          vertex 1.7000000000000002 3.8000000000000003 1
      endloop
  endfacet
  facet normal -1.0 0.0 0.0
      outer loop
          vertex 0.5 4.5 0.01
          vertex 0.5 2.5 0.01
          vertex 0.5 2.5 1
      endloop
  endfacet
  facet normal -1.0 0.0 0.0
      outer loop
          vertex 0.5 4.5 0.01
          vertex 0.5 2.5 1
          vertex 0.5 4.5 1
      endloop
  endfacet
endsolid obstacle
