solid obstacle
  facet normal -0.0 0.0 -1.0
      outer loop
          vertex 2.6 2.6 0.01
          vertex 2.4000000000000004 1.4000000000000001 0.01
          vertex 1.3 2.8000000000000003 0.01
      endloop
  endfacet
  facet normal 0.0 0.0 1.0
      outer loop
          vertex 2.6 2.6 1
          vertex 1.3 2.8000000000000003 1
          vertex 2.4000000000000004 1.4000000000000001 1
      endloop
  endfacet
  facet normal 0.15205718425394124 0.9883716976506172 0.0
      outer loop
          vertex 2.6 2.6 0.01
          vertex 1.3 2.8000000000000003 0.01
          vertex 1.3 2.8000000000000003 1
      endloop
  endfacet
  facet normal 0.15205718425394124 0.9883716976506172 -0.0
      outer loop
          vertex 2.6 2.6 0.01
          vertex 1.3 2.8000000000000003 1
          vertex 2.6 2.6 1
      endloop
  endfacet
  facet normal -0.7863183388224226 -0.6178215519319036 0.0
      outer loop
          vertex 1.3 2.8000000000000003 0.01
          vertex 2.4000000000000004 1.4000000000000001 0.01
          vertex 2.4000000000000004 1.4000000000000001 1
      endloop
  endfacet
  facet normal -0.7863183388224226 -0.6178215519319036 0.0
      outer loop
          vertex 1.3 2.8000000000000003 0.01
          vertex 2.4000000000000004 1.4000000000000001 1
          vertex 1.3 2.8000000000000003 1
      endloop
  endfacet
  facet normal 0.9863939238321439 -0.1643989873053571 0.0
      outer loop
          vertex 2.4000000000000004 1.4000000000000001 0.01
          vertex 2.6 2.6 0.01
          vertex 2.6 2.6 1
      endloop
  endfacet
  facet normal 0.9863939238321439 -0.1643989873053571 0.0
      outer loop
          vertex 2.4000000000000004 1.4000000000000001 0.01
          vertex 2.6 2.6 1
          vertex 2.4000000000000004 1.4000000000000001 1
      endloop
  endfacet
endsolid obstacle
