solid obstacle
  facet normal 0.0 0.0 -1.0
      outer loop
          vertex 2.7 2.8000000000000003 0.01
          vertex 4.1000000000000005 3.4000000000000004 0.01
          vertex 4.1000000000000005 1.6 0.01
      endloop
  endfacet
  facet normal -0.0 0.0 1.0
      outer loop
          vertex 2.7 2.8000000000000003 1
          vertex 4.1000000000000005 1.6 1
          vertex 4.1000000000000005 3.4000000000000004 1
      endloop
  endfacet
  facet normal -0.6507913734559685 -0.7592566023652967 0.0
      outer loop
          vertex 2.7 2.8000000000000003 0.01
          vertex 4.1000000000000005 1.6 0.01
          vertex 4.1000000000000005 1.6 1
      endloop
  endfacet
  facet normal -0.6507913734559685 -0.7592566023652967 0.0
      outer loop
          vertex 2.7 2.8000000000000003 0.01
          vertex 4.1000000000000005 1.6 1
          vertex 2.7 2.8000000000000003 1
      endloop
  endfacet
  facet normal 1.0 0.0 0.0
      outer loop
          vertex 4.1000000000000005 1.6 0.01
          vertex 4.1000000000000005 3.4000000000000004 0.01
          vertex 4.1000000000000005 3.4000000000000004 1
      endloop
  endfacet
  facet normal 1.0 0.0 0.0
      outer loop
          vertex 4.1000000000000005 1.6 0.01
          vertex 4.1000000000000005 3.4000000000000004 1
          vertex 4.1000000000000005 1.6 1
      endloop
  endfacet
  facet normal -0.39391929857916763 0.9191450300180579 0.0
      outer loop
          vertex 4.1000000000000005 3.4000000000000004 0.01
          vertex 2.7 2.8000000000000003 0.01
          vertex 2.7 2.8000000000000003 1
      endloop
  endfacet
  facet normal -0.39391929857916763 0.9191450300180579 0.0
      outer loop
          vertex 4.1000000000000005 3.4000000000000004 0.01
          vertex 2.7 2.8000000000000003 1
          vertex 4.1000000000000005 3.4000000000000004 1
      endloop
  endfacet
endsolid obstacle
