solid obstacle
  facet normal -0.0 0.0 -1.0
      outer loop
          vertex 4.7 1.2000000000000002 0.01
          vertex 3.5 0.0 0.01
          vertex 3.0 1.8 0.01
      endloop
  endfacet
  facet normal 0.0 0.0 1.0
      outer loop
          vertex 4.7 1.2000000000000002 1
          vertex 3.0 1.8 1
          vertex 3.5 0.0 1
      endloop
  endfacet
  facet normal 0.3328201177351374 0.9429903335828895 0.0
      outer loop
          vertex 4.7 1.2000000000000002 0.01
          vertex 3.0 1.8 0.01
          vertex 3.0 1.8 1
      endloop
  endfacet
  facet normal 0.3328201177351374 0.9429903335828895 -0.0
      outer loop
          vertex 4.7 1.2000000000000002 0.01
          vertex 3.0 1.8 1
          vertex 4.7 1.2000000000000002 1
      endloop
  endfacet
  facet normal -0.9635179096299405 -0.2676438637860946 0.0
      outer loop
          vertex 3.0 1.8 0.01
          vertex 3.5 0.0 0.01
          vertex 3.5 0.0 1
      endloop
  endfacet
  facet normal -0.9635179096299405 -0.2676438637860946 0.0
      outer loop
          vertex 3.0 1.8 0.01
          vertex 3.5 0.0 1
          vertex 3.0 1.8 1
      endloop
  endfacet
  facet normal 0.7071067811865475 -0.7071067811865475 0.0
      outer loop
          vertex 3.5 0.0 0.01
          vertex 4.7 1.2000000000000002 0.01
          vertex 4.7 1.2000000000000002 1
      endloop
  endfacet
  facet normal 0.7071067811865475 -0.7071067811865475 0.0
      outer loop
          vertex 3.5 0.0 0.01
          vertex 4.7 1.2000000000000002 1
          vertex 3.5 0.0 1
      endloop
  endfacet
endsolid obstacle
