solid obstacle
  facet normal -0.0 0.0 -1.0
      outer loop
          vertex 1.5 2.8000000000000003 0.01
          vertex 1.4000000000000001 2.1 0.01
          vertex 0.4 2.8000000000000003 0.01
      endloop
  endfacet
  facet normal 0.0 0.0 1.0
      outer loop
          vertex 1.5 2.8000000000000003 1
          vertex 0.4 2.8000000000000003 1
          vertex 1.4000000000000001 2.1 1
      endloop
  endfacet
  facet normal 0.0 1.0 0.0
      outer loop
          vertex 1.5 2.8000000000000003 0.01
          vertex 0.4 2.8000000000000003 0.01
          vertex 0.4 2.8000000000000003 1
      endloop
  endfacet
  facet normal 0.0 1.0 -0.0
      outer loop
          vertex 1.5 2.8000000000000003 0.01
          vertex 0.4 2.8000000000000003 1
          vertex 1.5 2.8000000000000003 1
      endloop
  endfacet
  facet normal -0.5734623443633284 -0.8192319205190404 0.0
      outer loop
          vertex 0.4 2.8000000000000003 0.01
          vertex 1.4000000000000001 2.1 0.01
          vertex 1.4000000000000001 2.1 1
      endloop
  endfacet
  facet normal -0.5734623443633284 -0.8192319205190404 0.0
      outer loop
          vertex 0.4 2.8000000000000003 0.01
          vertex 1.4000000000000001 2.1 1
          vertex 0.4 2.8000000000000003 1
      endloop
  endfacet
  facet normal 0.9899494936611666 -0.14142135623730928 0.0
      outer loop
          vertex 1.4000000000000001 2.1 0.01
          vertex 1.5 2.8000000000000003 0.01
          vertex 1.5 2.8000000000000003 1
      endloop
  endfacet
  facet normal 0.9899494936611666 -0.14142135623730928 0.0
      outer loop
          vertex 1.4000000000000001 2.1 0.01
          vertex 1.5 2.8000000000000003 1
          vertex 1.4000000000000001 2.1 1
      endloop
  endfacet
endsolid obstacle
