solid obstacle
  facet normal -0.0 0.0 -1.0
      outer loop
          vertex 2.5 3.3000000000000003 0.01
          vertex 1.5 1.7000000000000002 0.01
          vertex 1.3 3.5 0.01
      endloop
  endfacet
  facet normal 0.0 0.0 1.0
      outer loop
          vertex 2.5 3.3000000000000003 1
          vertex 1.3 3.5 1
          vertex 1.5 1.7000000000000002 1
      endloop
  endfacet
  facet normal 0.1643989873053571 0.9863939238321439 0.0
      outer loop
          vertex 2.5 3.3000000000000003 0.01
          vertex 1.3 3.5 0.01
          vertex 1.3 3.5 1
      endloop
  endfacet
  facet normal 0.1643989873053571 0.9863939238321439 -0.0
      outer loop
          vertex 2.5 3.3000000000000003 0.01
          vertex 1.3 3.5 1
          vertex 2.5 3.3000000000000003 1
      endloop
  endfacet
  facet normal -0.993883734673619 -0.11043152607484653 0.0
      outer loop
          vertex 1.3 3.5 0.01
          vertex 1.5 1.7000000000000002 0.01
          vertex 1.5 1.7000000000000002 1
      endloop
  endfacet
  facet normal -0.993883734673619 -0.11043152607484653 0.0
      outer loop
          vertex 1.3 3.5 0.01
          vertex 1.5 1.7000000000000002 1
          vertex 1.3 3.5 1
      endloop
  endfacet
  facet normal 0.8479983040050879 -0.5299989400031799 0.0
      outer loop
          vertex 1.5 1.7000000000000002 0.01
          vertex 2.5 3.3000000000000003 0.01
          vertex 2.5 3.3000000000000003 1
      endloop
  endfacet
  facet normal 0.8479983040050879 -0.5299989400031799 0.0
      outer loop
          vertex 1.5 1.7000000000000002 0.01
          vertex 2.5 3.3000000000000003 1
          vertex 1.5 1.7000000000000002 1
      endloop
  endfacet
endsolid obstacle
