solid obstacle
  facet normal 0.0 0.0 -1.0
      outer loop
          vertex 2.6 1.3 0.01
          vertex 3.4000000000000004 2.4000000000000004 0.01
          vertex 4.5 0.8 0.01
      endloop
  endfacet
  facet normal -0.0 0.0 1.0
      outer loop
          vertex 2.6 1.3 1
          vertex 4.5 0.8 1
          vertex 3.4000000000000004 2.4000000000000004 1
      endloop
  endfacet
  facet normal -0.25449329927964376 -0.9670745372626464 0.0
      outer loop
          vertex 2.6 1.3 0.01
          vertex 4.5 0.8 0.01
          vertex 4.5 0.8 1
      endloop
  endfacet
  facet normal -0.25449329927964376 -0.9670745372626464 0.0
      outer loop
          vertex 2.6 1.3 0.01
          vertex 4.5 0.8 1
          vertex 2.6 1.3 1
      endloop
  endfacet
  facet normal 0.8240419241993677 0.5665288228870651 0.0
      outer loop
          vertex 4.5 0.8 0.01
          vertex 3.4000000000000004 2.4000000000000004 0.01
          vertex 3.4000000000000004 2.4000000000000004 1
      endloop
  endfacet
  facet normal 0.8240419241993677 0.5665288228870651 -0.0
      outer loop
          vertex 4.5 0.8 0.01
          vertex 3.4000000000000004 2.4000000000000004 1
          vertex 4.5 0.8 1
      endloop
  endfacet
  facet normal -0.8087360843031884 0.5881716976750463 0.0
      outer loop
          vertex 3.4000000000000004 2.4000000000000004 0.01
          vertex 2.6 1.3 0.01
          vertex 2.6 1.3 1
      endloop
  endfacet
  facet normal -0.8087360843031884 0.5881716976750463 0.0
      outer loop
          vertex 3.4000000000000004 2.4000000000000004 0.01
          vertex 2.6 1.3 1
          vertex 3.4000000000000004 2.4000000000000004 1
      endloop
  endfacet
endsolid obstacle
