solid obstacle
  facet normal 0.0 0.0 -1.0
      outer loop
          vertex 1.8 3.3000000000000003 0.01
          vertex 2.9000000000000004 3.2 0.01
          vertex 3.1 2.0 0.01
      endloop
  endfacet
  facet normal 0.0 0.0 1.0
      outer loop
          vertex 1.8 3.3000000000000003 1
          vertex 3.1 2.0 1
          vertex 2.9000000000000004 3.2 1
      endloop
  endfacet
  facet normal -0.7071067811865476 -0.7071067811865475 0.0
      outer loop
          vertex 1.8 3.3000000000000003 0.01
          vertex 3.1 2.0 0.01
          vertex 3.1 2.0 1
      endloop
  endfacet
  facet normal -0.7071067811865476 -0.7071067811865475 0.0
      outer loop
          vertex 1.8 3.3000000000000003 0.01
          vertex 3.1 2.0 1
          vertex 1.8 3.3000000000000003 1
      endloop
  endfacet
  facet normal 0.9863939238321439 0.16439898730535707 0.0
      outer loop
          vertex 3.1 2.0 0.01
          vertex 2.9000000000000004 3.2 0.01
          vertex 2.9000000000000004 3.2 1
      endloop
  endfacet
  facet normal 0.9863939238321439 0.16439898730535707 -0.0
      outer loop
          vertex 3.1 2.0 0.01
          vertex 2.9000000000000004 3.2 1
          vertex 3.1 2.0 1
      endloop
  endfacet
  facet normal 0.09053574604251859 0.9958932064677037 0.0
      outer loop
          vertex 2.9000000000000004 3.2 0.01
          vertex 1.8 3.3000000000000003 0.01
          vertex 1.8 3.3000000000000003 1
      endloop
  endfacet
  facet normal 0.09053574604251859 0.9958932064677037 -0.0
      outer loop
          vertex 2.9000000000000004 3.2 0.01
          vertex 1.8 3.3000000000000003 1
          vertex 2.9000000000000004 3.2 1
      endloop
  endfacet
endsolid obstacle
