solid obstacle
  facet normal 0.0 0.0 -1.0
      outer loop
          vertex 0.5 1.2000000000000002 0.01
          vertex 1.3 1.4000000000000001 0.01
          vertex 1.8 0.30000000000000004 0.01
      endloop
  endfacet
  facet normal -0.0 0.0 1.0
      outer loop
          vertex 0.5 1.2000000000000002 1
          vertex 1.8 0.30000000000000004 1
          vertex 1.3 1.4000000000000001 1
      endloop
  endfacet
  facet normal -0.5692099788303083 -0.8221921916437785 0.0
      outer loop
          vertex 0.5 1.2000000000000002 0.01
          vertex 1.8 0.30000000000000004 0.01
          vertex 1.8 0.30000000000000004 1
      endloop
  endfacet
  facet normal -0.5692099788303083 -0.8221921916437785 0.0
      outer loop
          vertex 0.5 1.2000000000000002 0.01
          vertex 1.8 0.30000000000000004 1
          vertex 0.5 1.2000000000000002 1
      endloop
  endfacet
  facet normal 0.9103664774626047 0.4138029443011839 0.0
      outer loop
          vertex 1.8 0.30000000000000004 0.01
          vertex 1.3 1.4000000000000001 0.01
          vertex 1.3 1.4000000000000001 1
      endloop
  endfacet
  facet normal 0.9103664774626047 0.4138029443011839 -0.0
      outer loop
          vertex 1.8 0.30000000000000004 0.01
          vertex 1.3 1.4000000000000001 1
          vertex 1.8 0.30000000000000004 1
      endloop
  endfacet
  facet normal -0.24253562503633289 0.9701425001453319 0.0
      outer loop
          vertex 1.3 1.4000000000000001 0.01
          vertex 0.5 1.2000000000000002 0.01
          vertex 0.5 1.2000000000000002 1
      endloop
  endfacet
  facet normal -0.24253562503633289 0.9701425001453319 0.0
      outer loop
          vertex 1.3 1.4000000000000001 0.01
          vertex 0.5 1.2000000000000002 1
          vertex 1.3 1.4000000000000001 1
      endloop
  endfacet
endsolid obstacle
