solid obstacle
  facet normal -0.0 0.0 -1.0
      outer loop
          vertex 4.9 4.0 0.01
          vertex 4.7 3.8000000000000003 0.01
          vertex 2.9000000000000004 4.0 0.01
      endloop
  endfacet
  facet normal 0.0 0.0 1.0
      outer loop
          vertex 4.9 4.0 1
          vertex 2.9000000000000004 4.0 1
          vertex 4.7 3.8000000000000003 1
      endloop
  endfacet
  facet normal 0.0 1.0 0.0
      outer loop
          vertex 4.9 4.0 0.01
          vertex 2.9000000000000004 4.0 0.01
          vertex 2.9000000000000004 4.0 1
      endloop
  endfacet
  facet normal 0.0 1.0 -0.0
      outer loop
          vertex 4.9 4.0 0.01
          vertex 2.9000000000000004 4.0 1
          vertex 4.9 4.0 1
      endloop
  endfacet
  facet normal -0.11043152607484641 -0.993883734673619 0.0
      outer loop
          vertex 2.9000000000000004 4.0 0.01
          vertex 4.7 3.8000000000000003 0.01
          vertex 4.7 3.8000000000000003 1
      endloop
  endfacet
  facet normal -0.11043152607484641 -0.993883734673619 0.0
      outer loop
          vertex 2.9000000000000004 4.0 0.01
          vertex 4.7 3.8000000000000003 1
          vertex 2.9000000000000004 4.0 1
      endloop
  endfacet
  facet normal 0.7071067811865467 -0.7071067811865482 0.0
      outer loop
          vertex 4.7 3.8000000000000003 0.01
          vertex 4.9 4.0 0.01
          vertex 4.9 4.0 1
      endloop
  endfacet
  facet normal 0.7071067811865467 -0.7071067811865482 0.0
      outer loop
          vertex 4.7 3.8000000000000003 0.01
          vertex 4.9 4.0 1
          vertex 4.7 3.8000000000000003 1
      endloop
  endfacet
endsolid obstacle
