solid obstacle
  facet normal 0.0 0.0 -1.0
      outer loop
          vertex 1.6 2.3000000000000003 0.01
          vertex 4.1000000000000005 1.4000000000000001 0.01
          vertex 3.1 1.2000000000000002 0.01
      endloop
  endfacet
  facet normal 0.0 0.0 -1.0
      outer loop
          vertex 1.6 2.3000000000000003 0.01
          vertex 3.6 2.3000000000000003 0.01
          vertex 4.1000000000000005 1.4000000000000001 0.01
      endloop
  endfacet
  facet normal 0.0 0.0 1.0
      outer loop
          vertex 1.6 2.3000000000000003 1
          vertex 3.1 1.2000000000000002 1
          vertex 4.1000000000000005 1.4000000000000001 1
      endloop
  endfacet
  facet normal -0.0 0.0 1.0
      outer loop
          vertex 1.6 2.3000000000000003 1
          vertex 4.1000000000000005 1.4000000000000001 1
          vertex 3.6 2.3000000000000003 1
      endloop
  endfacet
  facet normal -0.5913636636275175 -0.8064049958557056 0.0
      outer loop
          vertex 1.6 2.3000000000000003 0.01
          vertex 3.1 1.2000000000000002 0.01
          vertex 3.1 1.2000000000000002 1
      endloop
  endfacet
  facet normal -0.5913636636275175 -0.8064049958557056 0.0
      outer loop
          vertex 1.6 2.3000000000000003 0.01
          vertex 3.1 1.2000000000000002 1
          vertex 1.6 2.3000000000000003 1
      endloop
  endfacet
  facet normal 0.1961161351381839 -0.9805806756909201 0.0
      outer loop
          vertex 3.1 1.2000000000000002 0.01
          vertex 4.1000000000000005 1.4000000000000001 0.01
          vertex 4.1000000000000005 1.4000000000000001 1
      endloop
  endfacet
  facet normal 0.1961161351381839 -0.9805806756909201 0.0
      outer loop
          vertex 3.1 1.2000000000000002 0.01
          vertex 4.1000000000000005 1.4000000000000001 1
          vertex 3.1 1.2000000000000002 1
      endloop
  endfacet
  facet normal 0.8741572761215376 0.4856429311786324 0.0
      outer loop
          vertex 4.1000000000000005 1.4000000000000001 0.01
          vertex 3.6 2.3000000000000003 0.01
          vertex 3.6 2.3000000000000003 1
      endloop
  endfacet
  facet normal 0.8741572761215376 0.4856429311786324 -0.0
      outer loop
          vertex 4.1000000000000005 1.4000000000000001 0.01
          vertex 3.6 2.3000000000000003 1
          vertex 4.1000000000000005 1.4000000000000001 1
      endloop
  endfacet
  facet normal 0.0 1.0 0.0
      outer loop
          vertex 3.6 2.3000000000000003 0.01
          vertex 1.6 2.3000000000000003 0.01
          vertex 1.6 2.3000000000000003 1
      endloop
  endfacet
  facet normal 0.0 1.0 -0.0
      outer loop
          vertex 3.6 2.3000000000000003 0.01
          vertex 1.6 2.3000000000000003 1
          vertex 3.6 2.3000000000000003 1
      endloop
  endfacet
endsolid obstacle
