solid obstacle
  facet normal 0.0 0.0 -1.0
      outer loop
          vertex 3.7 3.4000000000000004 0.01
          vertex 3.2 2.0 0.01
          vertex 2.2 2.1 0.01
      endloop
  endfacet
  facet normal 0.0 0.0 1.0
      outer loop
          vertex 3.7 3.4000000000000004 1
          vertex 2.2 2.1 1
          vertex 3.2 2.0 1
      endloop
  endfacet
  facet normal -0.654930538417842 0.7556890827898175 0.0
      outer loop
          vertex 3.7 3.4000000000000004 0.01
          vertex 2.2 2.1 0.01
          vertex 2.2 2.1 1
      endloop
  endfacet
  facet normal -0.654930538417842 0.7556890827898175 0.0
      outer loop
          vertex 3.7 3.4000000000000004 0.01
          vertex 2.2 2.1 1
          vertex 3.7 3.4000000000000004 1
      endloop
  endfacet
  facet normal -0.099503719020999 -0.9950371902099892 0.0
      outer loop
          vertex 2.2 2.1 0.01
          vertex 3.2 2.0 0.01
          vertex 3.2 2.0 1
      endloop
  endfacet
  facet normal -0.099503719020999 -0.9950371902099892 0.0
      outer loop
          vertex 2.2 2.1 0.01
          vertex 3.2 2.0 1
          vertex 2.2 2.1 1
      endloop
  endfacet
  facet normal 0.9417419115948374 -0.33633639699815615 0.0
      outer loop
          vertex 3.2 2.0 0.01
          vertex 3.7 3.4000000000000004 0.01
          vertex 3.7 3.4000000000000004 1
      endloop
  endfacet
  facet normal 0.9417419115948374 -0.33633639699815615 0.0
      outer loop
          vertex 3.2 2.0 0.01
          vertex 3.7 3.4000000000000004 1
          vertex 3.2 2.0 1
      endloop
  endfacet
endsolid obstacle
